<?xml version="1.0" standalone="no"?>
<!DOCTYPE svg PUBLIC "-//W3C//DTD SVG 20010904//EN"
 "http://www.w3.org/TR/2001/REC-SVG-20010904/DTD/svg10.dtd">
<svg version="1.0" xmlns="http://www.w3.org/2000/svg"
 width="512.000000pt" height="512.000000pt" viewBox="0 0 512.000000 512.000000"
 preserveAspectRatio="xMidYMid meet">

<g transform="translate(0.000000,512.000000) scale(0.100000,-0.100000)"
fill="#000000" stroke="none">
<path d="M2305 5105 c-144 -27 -251 -82 -335 -171 -115 -124 -165 -278 -165
-514 0 -161 19 -255 74 -368 29 -57 42 -104 55 -182 10 -67 27 -127 46 -168
27 -59 30 -73 30 -172 0 -92 -3 -113 -23 -150 -41 -79 -72 -94 -376 -195 -154
-51 -295 -102 -314 -114 -45 -28 -111 -99 -135 -148 -11 -21 -131 -290 -268
-598 l-247 -560 -1 -75 c-1 -51 5 -90 17 -123 l19 -47 121 0 c110 1 119 2 92
14 -57 25 -95 85 -95 148 0 29 431 1024 502 1160 18 33 45 67 67 82 21 15 157
65 312 115 225 74 285 98 331 130 65 47 120 125 145 204 l17 56 72 -77 c110
-119 207 -160 352 -149 109 8 180 46 274 146 l75 79 17 -57 c23 -77 79 -155
145 -202 45 -33 105 -56 331 -129 151 -49 289 -100 306 -112 17 -12 42 -37 54
-55 40 -59 520 -1156 520 -1190 0 -64 -38 -123 -95 -149 -27 -12 -18 -13 92
-14 l121 0 19 47 c12 33 18 72 17 123 l-1 75 -247 560 c-137 308 -257 577
-268 598 -24 49 -90 120 -135 148 -19 12 -160 63 -314 114 -304 101 -335 116
-376 195 -20 37 -23 58 -23 152 0 89 4 116 20 148 26 52 48 135 60 235 6 44
23 119 39 165 154 443 104 757 -132 821 -26 7 -57 28 -91 63 -28 29 -76 64
-106 78 -145 67 -419 96 -595 63z m340 -160 c173 -26 242 -61 285 -145 21 -42
36 -50 86 -50 142 0 183 -198 102 -494 -22 -79 -22 -79 -35 -50 -6 16 -12 52
-13 79 0 75 -18 126 -56 162 -49 46 -86 50 -206 19 -57 -14 -134 -28 -173 -32
-82 -7 -228 9 -340 37 -47 12 -97 19 -122 16 -84 -9 -133 -72 -133 -171 0 -64
-18 -156 -30 -156 -10 0 -24 47 -40 130 -24 126 -1 328 50 437 88 190 306 266
625 218z m-310 -647 c139 -29 359 -29 465 0 41 11 82 22 90 24 11 2 16 -13 22
-68 9 -86 36 -161 83 -232 22 -33 35 -66 35 -85 0 -44 -27 -151 -46 -190 -20
-38 -192 -254 -247 -310 -102 -102 -250 -103 -351 -2 -33 32 -129 148 -223
269 -37 47 -59 106 -74 196 -9 56 -8 65 9 84 54 61 87 152 98 272 6 63 9 74
23 69 9 -4 61 -16 116 -27z"/>
<path d="M4260 4826 c-155 -34 -256 -89 -370 -205 -67 -67 -95 -105 -128 -171
-62 -125 -77 -192 -76 -340 1 -107 5 -137 27 -205 38 -115 90 -199 182 -290
93 -93 160 -135 282 -178 80 -28 100 -31 213 -31 148 -1 216 14 338 76 251
125 409 405 389 689 -13 177 -81 323 -212 454 -139 139 -283 203 -475 210 -67
3 -128 -1 -170 -9z m321 -178 c149 -55 254 -147 319 -282 151 -314 -3 -668
-340 -782 -81 -28 -254 -25 -334 4 -179 65 -301 191 -362 372 -14 40 -19 84
-19 160 0 158 50 282 156 390 80 81 180 136 294 161 70 15 213 3 286 -23z"/>
<path d="M4345 4415 c-24 -23 -25 -28 -25 -175 0 -147 1 -152 25 -175 23 -24
31 -25 135 -25 104 0 112 1 135 25 33 32 33 78 0 110 -20 21 -34 25 -80 25
l-55 0 0 95 c0 88 -2 98 -25 120 -15 16 -36 25 -55 25 -19 0 -40 -9 -55 -25z"/>
<path d="M1505 2815 l-25 -24 0 -376 0 -375 -34 0 c-19 0 -45 -9 -60 -21 -23
-18 -27 -28 -24 -62 5 -68 17 -72 323 -107 149 -17 291 -35 317 -41 135 -31
159 -212 36 -272 -32 -16 -31 -17 84 -17 l117 0 18 33 c12 22 17 56 18 112 0
68 -4 89 -28 137 -15 31 -44 71 -64 89 -69 60 -121 76 -338 101 l-200 23 -3
322 c-2 256 0 322 10 318 7 -2 179 -45 382 -95 203 -49 386 -95 407 -100 l39
-11 0 -464 0 -465 80 0 80 0 0 465 0 465 23 5 c426 101 826 197 840 201 16 5
17 -14 17 -315 0 -177 -2 -321 -5 -321 -18 0 -435 -52 -455 -57 -87 -21 -180
-111 -206 -201 -18 -62 -15 -169 6 -214 l13 -28 116 1 c72 0 108 3 96 9 -11 4
-33 22 -49 39 -58 61 -42 182 29 223 23 13 114 27 335 53 344 40 353 43 358
112 3 34 -1 44 -24 62 -15 11 -33 21 -40 21 -12 0 -14 65 -14 375 l0 376 -25
24 c-13 14 -33 25 -44 25 -10 0 -247 -54 -525 -120 -278 -66 -514 -120 -524
-120 -11 0 -238 54 -505 120 -268 66 -496 120 -507 120 -12 0 -32 -11 -45 -25z"/>
<path d="M25 1335 l-25 -24 0 -231 0 -231 25 -24 24 -25 296 0 295 0 0 -375 0
-376 25 -24 24 -25 1871 0 1871 0 24 25 25 24 0 376 0 375 295 0 296 0 24 25
25 24 0 231 0 231 -25 24 -24 25 -2511 0 -2511 0 -24 -25z m4935 -255 l0 -120
-295 0 -296 0 -24 -25 -25 -24 0 -376 0 -375 -1760 0 -1760 0 0 375 0 376 -25
24 -24 25 -296 0 -295 0 0 120 0 120 2400 0 2400 0 0 -120z"/>
<path d="M1225 935 c-16 -15 -25 -36 -25 -55 0 -19 9 -40 25 -55 l24 -25 1311
0 1311 0 24 25 c33 32 33 78 0 110 l-24 25 -1311 0 -1311 0 -24 -25z"/>
</g>
</svg>
