<svg xmlns="http://www.w3.org/2000/svg" xml:space="preserve" viewBox="0 0 102.73 122.88"><path d="M31.25 37c-1.12.04-1.96.27-2.54.66-.33.22-.57.5-.73.84-.17.37-.25.83-.24 1.35.04 1.53.85 3.53 2.4 5.83l.02.03 5.03 8c2.02 3.21 4.13 6.48 6.76 8.88 2.53 2.31 5.59 3.87 9.65 3.88 4.39.01 7.6-1.61 10.21-4.05 2.71-2.54 4.85-6.02 6.96-9.49l5.67-9.33c1.06-2.41 1.44-4.02 1.2-4.97-.14-.56-.76-.84-1.82-.89-.22-.01-.46-.01-.69-.01-.25.01-.52.02-.79.05-.15.01-.3 0-.44-.03-.5.03-1.02-.01-1.55-.08l1.94-8.59c-14.4 2.27-25.17-8.42-40.38-2.14L33 37.06c-.64.04-1.22.02-1.75-.06m4.2 61.09h3.21c2.07 0 3.47.1 4.2.29s1.29.5 1.67.94c.38.43.62.92.71 1.45.1.54.14 1.58.14 3.15v5.78q0 2.22-.21 2.97c-.14.5-.38.89-.73 1.17s-.77.48-1.29.59c-.51.11-1.28.17-2.3.17h-5.41V98.09zm4.3 2.82v10.87c.61 0 .98-.13 1.12-.37.14-.25.21-.92.21-2.03v-6.42c0-.75-.03-1.23-.07-1.44-.05-.21-.15-.37-.32-.46-.17-.1-.48-.15-.94-.15m7.96-2.82h7.15v3.3H52v3.15h2.67v3.13H52v3.63h3.15v3.3H47.7V98.09zm19.57 0-2.17 16.5h-6.5l-2.49-16.5h4.53c.51 4.55.88 8.4 1.12 11.54.23-3.18.48-6 .71-8.47l.28-3.08h4.52zm-35.62-.88v3.11h-.43c-.39 0-.69.08-.89.25s-.34.42-.42.78c-.05.19-.07.71-.08 1.56s-.1 1.53-.27 2.02c-.13.38-.31.68-.54.91-.18.17-.47.34-.88.52.42.2.74.4.94.62.21.21.38.54.53.97s.22 1.13.22 2.08c0 .86.05 1.41.13 1.67.09.26.23.45.44.55.21.11.62.16 1.24.16v3.07h-1.19c-1.23 0-2.11-.14-2.63-.41s-.89-.66-1.11-1.18-.33-1.29-.33-2.33c0-.23.01-.46.02-.68.01-.14.01-.28.01-.43 0-.74-.07-1.26-.2-1.57s-.32-.54-.58-.68c-.25-.14-.61-.21-1.09-.23v-3.25c.49 0 .86-.08 1.1-.23s.43-.39.56-.7.19-.85.19-1.59v-.32c-.01-.15-.01-.29-.01-.44 0-1.12.09-1.94.28-2.43.19-.5.44-.89.77-1.15.25-.21.58-.36 1.01-.46.56-.13 1.2-.2 1.92-.2h1.29zm39.41 0v3.11h.42c.39 0 .69.08.89.25s.34.42.42.78c.05.19.07.71.08 1.56s.1 1.53.27 2.02c.13.38.31.68.54.91.18.17.47.34.88.52-.42.2-.74.4-.94.62-.21.21-.38.54-.53.97s-.22 1.13-.22 2.08c0 .86-.04 1.41-.13 1.67s-.23.45-.44.55c-.21.11-.62.16-1.24.16v3.07h1.19c1.24 0 2.11-.14 2.63-.41s.89-.66 1.11-1.18.33-1.29.33-2.33c0-.23-.01-.46-.02-.68-.01-.14-.01-.28-.01-.43 0-.74.07-1.26.2-1.57s.32-.54.58-.68c.25-.14.61-.21 1.09-.23v-3.25c-.49 0-.86-.08-1.1-.23-.25-.15-.43-.39-.56-.7s-.19-.85-.19-1.59v-.32c.01-.15.01-.29.01-.44 0-1.12-.09-1.94-.28-2.43-.19-.5-.45-.89-.77-1.15-.25-.21-.58-.36-1.01-.46-.56-.13-1.2-.2-1.92-.2h-1.28zm4.65-62.02c.21-8.77 1.82-17.63-4.42-24.82C66.86 5.25 55.28.42 47.77.01c-3.17-.17-1.96 2.41-5.09 3.49-6.46 2.23-12.11 6.97-13.96 13.55-.3 1.08-.51 2.17-.62 3.26-.21 4.58-.09 10.04.24 14.38-.45.17-.86.38-1.22.62-.78.52-1.35 1.2-1.73 2.01-.36.77-.52 1.65-.49 2.62.06 2.06 1.01 4.56 2.85 7.31l5.03 8c1.76 2.8 3.6 5.65 5.84 8.06-.11.32.01-.03-.06.18-.62 1.88-1.66 5.02-2.59 6.78-6.11 4-20.1 5.03-25.53 8.06C-4.38 86.59.97 103.62.79 117.68c.29 3.14 2.07 4.94 5.57 5.21h3.79L6 91.39c-.32-2.45 1.42-4.46 3.56-4.46h42.45c-.79-5.1-13.98-10.02-14.45-13.86.13-.09.25-.21.35-.35 1.12-1.56 2.28-4.81 3.08-7.18 2.83 2.29 6.23 3.79 10.6 3.8 3.92.01 7.05-1.08 9.68-2.85.26.37.52.76.8 1.17 1.25 1.84 2.71 3.97 4.07 5.49-.29 4.37-11.73 4.42-13.03 13.78h40.73c2.14 0 3.89 2.01 3.56 4.46l-4.15 31.5h3.79c3.5-.27 5.28-2.07 5.58-5.21-.99-13.29 3.99-31.75-9.65-39.35-5.36-2.99-19.06-4.03-25.29-7.9-1.05-1.3-2.18-2.96-3.18-4.42-.32-.48-.63-.93-.92-1.34l.15-.13c2.99-2.8 5.24-6.45 7.45-10.09L76.92 45c.03-.05.06-.11.09-.16 1.34-3.05 1.78-5.29 1.38-6.87-.38-1.47-1.26-2.35-2.67-2.78" style="fill-rule:evenodd;clip-rule:evenodd"/></svg>