<svg xmlns="http://www.w3.org/2000/svg" width="682.667" height="682.667" version="1.0" viewBox="0 0 512 512"><path d="M230.5 1.5c-14.4 2.7-25.1 8.2-33.5 17.1C185.5 31 180.5 46.4 180.5 70c0 16.1 1.9 25.5 7.4 36.8 2.9 5.7 4.2 10.4 5.5 18.2 1 6.7 2.7 12.7 4.6 16.8 2.7 5.9 3 7.3 3 17.2 0 9.2-.3 11.3-2.3 15-4.1 7.9-7.2 9.4-37.6 19.5-15.4 5.1-29.5 10.2-31.4 11.4-4.5 2.8-11.1 9.9-13.5 14.8-1.1 2.1-13.1 29-26.8 59.8l-24.7 56-.1 7.5c-.1 5.1.5 9 1.7 12.3l1.9 4.7h12.1c11-.1 11.9-.2 9.2-1.4-5.7-2.5-9.5-8.5-9.5-14.8 0-2.9 43.1-102.4 50.2-116 1.8-3.3 4.5-6.7 6.7-8.2 2.1-1.5 15.7-6.5 31.2-11.5 22.5-7.4 28.5-9.8 33.1-13 6.5-4.7 12-12.5 14.5-20.4l1.7-5.6 7.2 7.7c11 11.9 20.7 16 35.2 14.9 10.9-.8 18-4.6 27.4-14.6l7.5-7.9 1.7 5.7c2.3 7.7 7.9 15.5 14.5 20.2 4.5 3.3 10.5 5.6 33.1 12.9 15.1 4.9 28.9 10 30.6 11.2s4.2 3.7 5.4 5.5c4 5.9 52 115.6 52 119 0 6.4-3.8 12.3-9.5 14.9-2.7 1.2-1.8 1.3 9.2 1.4h12.1l1.9-4.7c1.2-3.3 1.8-7.2 1.7-12.3l-.1-7.5-24.7-56c-13.7-30.8-25.7-57.7-26.8-59.8-2.4-4.9-9-12-13.5-14.8-1.9-1.2-16-6.3-31.4-11.4-30.4-10.1-33.5-11.6-37.6-19.5-2-3.7-2.3-5.8-2.3-15.2 0-8.9.4-11.6 2-14.8 2.6-5.2 4.8-13.5 6-23.5.6-4.4 2.3-11.9 3.9-16.5 15.4-44.3 10.4-75.7-13.2-82.1-2.6-.7-5.7-2.8-9.1-6.3-2.8-2.9-7.6-6.4-10.6-7.8-14.5-6.7-41.9-9.6-59.5-6.3m34 16c17.3 2.6 24.2 6.1 28.5 14.5 2.1 4.2 3.6 5 8.6 5 14.2 0 18.3 19.8 10.2 49.4-2.2 7.9-2.2 7.9-3.5 5-.6-1.6-1.2-5.2-1.3-7.9 0-7.5-1.8-12.6-5.6-16.2-4.9-4.6-8.6-5-20.6-1.9-5.7 1.4-13.4 2.8-17.3 3.2-8.2.7-22.8-.9-34-3.7-4.7-1.2-9.7-1.9-12.2-1.6-8.4.9-13.3 7.2-13.3 17.1 0 6.4-1.8 15.6-3 15.6-1 0-2.4-4.7-4-13-2.4-12.6-.1-32.8 5-43.7 8.8-19 30.6-26.6 62.5-21.8m-31 64.7c13.9 2.9 35.9 2.9 46.5 0 4.1-1.1 8.2-2.2 9-2.4 1.1-.2 1.6 1.3 2.2 6.8.9 8.6 3.6 16.1 8.3 23.2 2.2 3.3 3.5 6.6 3.5 8.5 0 4.4-2.7 15.1-4.6 19-2 3.8-19.2 25.4-24.7 31-10.2 10.2-25 10.3-35.1.2-3.3-3.2-12.9-14.8-22.3-26.9-3.7-4.7-5.9-10.6-7.4-19.6-.9-5.6-.8-6.5.9-8.4 5.4-6.1 8.7-15.2 9.8-27.2.6-6.3.9-7.4 2.3-6.9.9.4 6.1 1.6 11.6 2.7M426 29.4c-15.5 3.4-25.6 8.9-37 20.5-6.7 6.7-9.5 10.5-12.8 17.1-6.2 12.5-7.7 19.2-7.6 34 .1 10.7.5 13.7 2.7 20.5 3.8 11.5 9 19.9 18.2 29 9.3 9.3 16 13.5 28.2 17.8 8 2.8 10 3.1 21.3 3.1 14.8.1 21.6-1.4 33.8-7.6 25.1-12.5 40.9-40.5 38.9-68.9-1.3-17.7-8.1-32.3-21.2-45.4-13.9-13.9-28.3-20.3-47.5-21-6.7-.3-12.8.1-17 .9m32.1 17.8c14.9 5.5 25.4 14.7 31.9 28.2 15.1 31.4-.3 66.8-34 78.2-8.1 2.8-25.4 2.5-33.4-.4-17.9-6.5-30.1-19.1-36.2-37.2-1.4-4-1.9-8.4-1.9-16 0-15.8 5-28.2 15.6-39 8-8.1 18-13.6 29.4-16.1 7-1.5 21.3-.3 28.6 2.3"/><path d="M434.5 70.5c-2.4 2.3-2.5 2.8-2.5 17.5s.1 15.2 2.5 17.5c2.3 2.4 3.1 2.5 13.5 2.5s11.2-.1 13.5-2.5c3.3-3.2 3.3-7.8 0-11-2-2.1-3.4-2.5-8-2.5H448v-9.5c0-8.8-.2-9.8-2.5-12-1.5-1.6-3.6-2.5-5.5-2.5s-4 .9-5.5 2.5M150.5 230.5l-2.5 2.4V308h-3.4c-1.9 0-4.5.9-6 2.1-2.3 1.8-2.7 2.8-2.4 6.2.5 6.8 1.7 7.2 32.3 10.7 14.9 1.7 29.1 3.5 31.7 4.1 13.5 3.1 15.9 21.2 3.6 27.2-3.2 1.6-3.1 1.7 8.4 1.7h11.7l1.8-3.3c1.2-2.2 1.7-5.6 1.8-11.2 0-6.8-.4-8.9-2.8-13.7-1.5-3.1-4.4-7.1-6.4-8.9-6.9-6-12.1-7.6-33.8-10.1l-20-2.3-.3-32.2c-.2-25.6 0-32.2 1-31.8.7.2 17.9 4.5 38.2 9.5 20.3 4.9 38.6 9.5 40.7 10l3.9 1.1V360h16v-93l2.3-.5c42.6-10.1 82.6-19.7 84-20.1 1.6-.5 1.7 1.4 1.7 31.5 0 17.7-.2 32.1-.5 32.1-1.8 0-43.5 5.2-45.5 5.7-8.7 2.1-18 11.1-20.6 20.1-1.8 6.2-1.5 16.9.6 21.4l1.3 2.8 11.6-.1c7.2 0 10.8-.3 9.6-.9-1.1-.4-3.3-2.2-4.9-3.9-5.8-6.1-4.2-18.2 2.9-22.3 2.3-1.3 11.4-2.7 33.5-5.3 34.4-4 35.3-4.3 35.8-11.2.3-3.4-.1-4.4-2.4-6.2-1.5-1.1-3.3-2.1-4-2.1-1.2 0-1.4-6.5-1.4-37.5v-37.6l-2.5-2.4c-1.3-1.4-3.3-2.5-4.4-2.5-1 0-24.7 5.4-52.5 12s-51.4 12-52.4 12c-1.1 0-23.8-5.4-50.5-12-26.8-6.6-49.6-12-50.7-12-1.2 0-3.2 1.1-4.5 2.5M2.5 378.5 0 380.9v46.2l2.5 2.4 2.4 2.5H64v75.1l2.5 2.4 2.4 2.5h374.2l2.4-2.5 2.5-2.4V432h59.1l2.4-2.5 2.5-2.4v-46.2l-2.5-2.4-2.4-2.5H4.9zM496 404v12h-59.1l-2.4 2.5-2.5 2.4V496H80v-75.1l-2.5-2.4-2.4-2.5H16v-24h480z"/><path d="M122.5 418.5c-1.6 1.5-2.5 3.6-2.5 5.5s.9 4 2.5 5.5l2.4 2.5h262.2l2.4-2.5c3.3-3.2 3.3-7.8 0-11l-2.4-2.5H124.9z"/></svg>